<svg xmlns="http://www.w3.org/2000/svg" viewBox="0 0 256 256" width="256" height="256">
  <!-- Redmine-style ring of arc fragments, closing into an arrow (periodic cycle) -->
    <path d="M 188.3 50.8 A 98 98 0 0 1 223.1 104.3" fill="none" stroke="#c00000" stroke-width="30"/>
  <path d="M 225.3 116.1 A 98 98 0 0 1 212.0 178.5" fill="none" stroke="#c00000" stroke-width="30"/>
  <path d="M 205.2 188.3 A 98 98 0 0 1 151.7 223.1" fill="none" stroke="#c00000" stroke-width="30"/>
  <path d="M 139.9 225.3 A 98 98 0 0 1 77.5 212.0" fill="none" stroke="#c00000" stroke-width="30"/>
  <path d="M 67.7 205.2 A 98 98 0 0 1 32.9 151.7" fill="none" stroke="#c00000" stroke-width="30"/>
  <path d="M 30.7 139.9 A 98 98 0 0 1 44.0 77.5" fill="none" stroke="#c00000" stroke-width="30"/>
  <path d="M 50.8 67.7 A 98 98 0 0 1 104.3 32.9" fill="none" stroke="#c00000" stroke-width="30"/>
  <path d="M 116.1 30.7 A 98 98 0 0 1 159.9 35.3" fill="none" stroke="#c00000" stroke-width="30"/>
  <polygon points="168.0,11.7 151.8,59.0 184.2,47.7" fill="#c00000"/>
  <!-- calendar / task card -->
  <rect x="88" y="90" width="80" height="80" rx="12" fill="#c00000"/>
  <rect x="88" y="90" width="80" height="24" rx="12" fill="#8a0000"/>
  <rect x="88" y="104" width="80" height="10" fill="#8a0000"/>
  <rect x="104" y="80" width="10" height="22" rx="5" fill="#c00000"/>
  <rect x="142" y="80" width="10" height="22" rx="5" fill="#c00000"/>
  <path d="M 108 140 L 122 154 L 150 124" fill="none" stroke="#fff" stroke-width="11" stroke-linecap="round" stroke-linejoin="round"/>
</svg>
